<svg width="348" height="48" viewBox="0 0 348 48" fill="none" xmlns="http://www.w3.org/2000/svg">
<rect x="0.75" y="0.75" width="346.5" height="46.5" rx="3.25" stroke="#272727" stroke-width="1.5"/>
<path d="M73.0603 16.4002H72.3213C71.3988 16.4002 70.9307 16.674 70.9307 17.2135V30.5607C70.9307 31.1005 71.3988 31.3739 72.3213 31.3739H73.0603C73.9832 31.3739 74.4508 31.1001 74.4508 30.5607V17.2135C74.4512 16.674 73.9832 16.4002 73.0603 16.4002Z" fill="#272727"/>
<path d="M86.0947 29.739C86.0947 28.1467 87.1447 26.799 88.5948 26.3353C88.7605 25.593 88.844 24.7744 88.8455 23.8794C88.8455 19.0548 86.3914 16.3975 81.9348 16.3975H77.1841C76.5204 16.3975 76.2112 16.7038 76.2112 17.3618V30.397C76.2112 31.0549 76.5204 31.3613 77.1837 31.3613H81.9344C83.6335 31.3613 85.0404 30.9739 86.1322 30.2288C86.1083 30.0667 86.0962 29.9029 86.0947 29.739ZM81.9341 28.3606H79.7467V19.3982H81.9341C84.6709 19.3982 85.2457 21.8352 85.2457 23.8794C85.2457 25.9236 84.6709 28.3606 81.9341 28.3606Z" fill="#272727"/>
<path d="M89.7037 28.1045C90.6144 28.1045 91.3527 28.8364 91.3527 29.7393C91.3527 30.6422 90.6144 31.374 89.7037 31.374C88.7929 31.374 88.0546 30.6422 88.0546 29.7393C88.0546 28.8364 88.7929 28.1045 89.7037 28.1045Z" fill="#272727"/>
<path d="M113.154 27.4452C113.105 27.4245 113.054 27.413 113.001 27.4112C112.776 27.4037 112.622 27.4916 112.486 27.709C112.406 27.8393 112.327 27.9718 112.249 28.1042C111.949 28.6094 111.641 29.131 111.191 29.5051C110.582 30.0128 109.699 30.2502 108.942 30.1124C108.491 30.0306 108.17 29.7075 107.979 29.4512C107.63 28.9799 107.459 28.3455 107.487 27.6144C108.601 27.5212 111.96 27.0289 112.227 24.5048C112.279 24.0154 112.139 23.572 111.821 23.2221C111.418 22.7787 110.775 22.5341 110.01 22.5341C107.77 22.5341 105.559 24.8572 105.279 27.5055C105.202 28.232 105.293 28.9028 105.55 29.5008C105.387 29.6572 105.201 29.7875 104.998 29.8875C104.811 29.976 104.648 29.9942 104.529 29.9399C104.381 29.8721 104.322 29.7011 104.298 29.5701C104.21 29.0853 104.324 28.528 104.459 27.9521C104.538 27.6144 104.637 27.2627 104.725 26.9521C104.996 25.9943 105.276 25.0039 105.183 24.0032C105.098 23.0871 104.449 22.5181 103.49 22.5181C102.146 22.5181 101.26 23.4691 100.687 24.2845C100.675 23.6769 100.529 23.2357 100.243 22.9408C99.9703 22.6602 99.5701 22.5177 99.0539 22.5177C97.7351 22.5177 96.8607 23.4313 96.2892 24.231C96.2967 24.1575 96.3045 24.0825 96.3127 24.0075C96.3488 23.6648 96.3649 23.1735 96.0889 22.8701C95.9247 22.6894 95.6776 22.5977 95.3545 22.5977C95.1325 22.5909 94.9104 22.608 94.6923 22.6494C94.6891 22.6498 94.3927 22.7073 94.2799 22.8101C94.0825 22.9897 94.1453 23.2374 94.1814 23.3788C94.186 23.3967 94.1903 23.4131 94.1925 23.427C94.2149 23.5837 94.2217 23.7422 94.2132 23.9004C94.1717 24.8622 93.9918 25.8236 93.8208 26.6372C93.7283 27.0757 93.6244 27.5216 93.5216 27.9618C93.2931 28.9385 93.0575 29.9478 92.9365 30.9631C92.9097 31.1606 93.0475 31.3423 93.2449 31.3691C93.2628 31.3716 93.281 31.3726 93.2992 31.3723L93.3703 31.373C94.095 31.3826 94.8072 31.353 94.9747 30.9431C95.1599 30.4912 95.2624 29.9414 95.3531 29.4551L95.3931 29.2395C95.608 28.1213 95.7958 27.3202 96.1742 26.2902C96.3691 25.7594 96.7254 25.2813 97.0135 24.9236C97.3623 24.4905 97.7386 24.0668 98.1631 24.0561C98.3388 24.0471 98.4534 24.0989 98.5398 24.2128C98.9521 24.7583 98.4387 26.5187 98.2195 27.2706C98.172 27.433 98.1321 27.5705 98.1067 27.6711L97.9557 28.252C97.7333 29.0988 97.5034 29.9742 97.3856 30.86C97.3738 30.9506 97.3627 31.0417 97.3534 31.1338L97.3434 31.2573L97.4362 31.328C97.6233 31.4719 98.9593 31.2705 98.97 31.2673C99.4626 31.1024 99.5697 30.6429 99.6051 30.4919C99.6968 30.1013 99.7779 29.7022 99.8561 29.3166L99.8618 29.288C100.009 28.5615 100.161 27.81 100.388 27.0849C100.832 25.674 101.424 24.7115 102.148 24.2239C102.458 24.0146 102.776 23.9914 102.92 24.1682C103.17 24.473 103.012 25.2985 102.944 25.6508C102.85 26.1399 102.73 26.6372 102.615 27.1185L102.609 27.1431C102.534 27.4498 102.461 27.7561 102.392 28.0635C102.181 29.016 102.007 30.197 102.548 30.8785C102.823 31.2259 103.249 31.4019 103.813 31.4019C104.413 31.4019 104.976 31.2038 105.587 30.7786C105.755 30.6604 105.925 30.5229 106.123 30.3594C106.811 31.1341 107.592 31.4662 108.719 31.4662C111.267 31.4662 112.465 29.7875 113.145 28.5248C113.235 28.363 113.315 28.1956 113.383 28.0235C113.468 27.7911 113.367 27.5366 113.154 27.4452ZM109.911 25.1324C109.547 26.3017 108.524 26.5087 107.638 26.5384C107.755 26.0393 107.927 25.5548 108.153 25.0942C108.583 24.2239 109.125 23.6833 109.565 23.683C110.228 23.683 110.033 24.7309 109.911 25.1324Z" fill="#272727"/>
<path d="M131.039 23.8698H128.551C128.505 23.5478 128.412 23.2618 128.272 23.0118C128.132 22.7581 127.952 22.5421 127.732 22.3641C127.513 22.1861 127.259 22.0497 126.971 21.955C126.687 21.8603 126.378 21.813 126.045 21.813C125.443 21.813 124.918 21.9626 124.471 22.2618C124.024 22.5573 123.677 22.9891 123.431 23.5573C123.185 24.1217 123.062 24.8073 123.062 25.6141C123.062 26.4437 123.185 27.1406 123.431 27.705C123.681 28.2694 124.03 28.6956 124.477 28.9834C124.924 29.2713 125.441 29.4153 126.028 29.4153C126.357 29.4153 126.662 29.3717 126.943 29.2846C127.227 29.1975 127.479 29.0706 127.698 28.9039C127.918 28.7334 128.1 28.527 128.244 28.2846C128.391 28.0421 128.494 27.7656 128.551 27.455L131.039 27.4664C130.975 28.0005 130.814 28.5156 130.556 29.0118C130.302 29.5043 129.96 29.9456 129.528 30.3357C129.1 30.7221 128.588 31.0289 127.994 31.2562C127.403 31.4796 126.734 31.5914 125.988 31.5914C124.95 31.5914 124.022 31.3565 123.204 30.8868C122.39 30.4171 121.746 29.7372 121.272 28.8471C120.802 27.9569 120.568 26.8793 120.568 25.6141C120.568 24.3452 120.806 23.2656 121.283 22.3755C121.761 21.4853 122.408 20.8073 123.227 20.3414C124.045 19.8717 124.965 19.6368 125.988 19.6368C126.662 19.6368 127.287 19.7315 127.863 19.9209C128.443 20.1103 128.956 20.3868 129.403 20.7505C129.85 21.1103 130.213 21.5516 130.494 22.0743C130.778 22.5971 130.96 23.1956 131.039 23.8698ZM136.701 31.6028C135.819 31.6028 135.055 31.4153 134.411 31.0403C133.771 30.6615 133.277 30.135 132.928 29.4607C132.58 28.7827 132.406 27.9967 132.406 27.1028C132.406 26.2012 132.58 25.4134 132.928 24.7391C133.277 24.0611 133.771 23.5346 134.411 23.1596C135.055 22.7808 135.819 22.5914 136.701 22.5914C137.584 22.5914 138.345 22.7808 138.985 23.1596C139.629 23.5346 140.125 24.0611 140.474 24.7391C140.822 25.4134 140.997 26.2012 140.997 27.1028C140.997 27.9967 140.822 28.7827 140.474 29.4607C140.125 30.135 139.629 30.6615 138.985 31.0403C138.345 31.4153 137.584 31.6028 136.701 31.6028ZM136.712 29.7278C137.114 29.7278 137.449 29.6141 137.718 29.3868C137.987 29.1558 138.19 28.8414 138.326 28.4437C138.466 28.0459 138.536 27.5933 138.536 27.0857C138.536 26.5781 138.466 26.1255 138.326 25.7278C138.19 25.33 137.987 25.0156 137.718 24.7846C137.449 24.5535 137.114 24.438 136.712 24.438C136.307 24.438 135.966 24.5535 135.69 24.7846C135.417 25.0156 135.211 25.33 135.07 25.7278C134.934 26.1255 134.866 26.5781 134.866 27.0857C134.866 27.5933 134.934 28.0459 135.07 28.4437C135.211 28.8414 135.417 29.1558 135.69 29.3868C135.966 29.6141 136.307 29.7278 136.712 29.7278ZM144.991 26.3868V31.4323H142.57V22.705H144.877V24.2448H144.98C145.173 23.7372 145.497 23.3357 145.951 23.0403C146.406 22.741 146.957 22.5914 147.605 22.5914C148.211 22.5914 148.739 22.724 149.19 22.9891C149.641 23.2543 149.991 23.6331 150.241 24.1255C150.491 24.6141 150.616 25.1975 150.616 25.8755V31.4323H148.196V26.3073C148.199 25.7732 148.063 25.3565 147.787 25.0573C147.51 24.7543 147.129 24.6028 146.645 24.6028C146.319 24.6028 146.031 24.6728 145.781 24.813C145.535 24.9531 145.341 25.1577 145.201 25.4266C145.065 25.6918 144.995 26.0118 144.991 26.3868ZM157.166 22.705V24.5232H151.91V22.705H157.166ZM153.103 20.6141H155.524V28.7505C155.524 28.974 155.558 29.1482 155.626 29.2732C155.694 29.3944 155.789 29.4796 155.91 29.5289C156.035 29.5781 156.179 29.6028 156.342 29.6028C156.456 29.6028 156.569 29.5933 156.683 29.5743C156.797 29.5516 156.884 29.5346 156.944 29.5232L157.325 31.3243C157.204 31.3622 157.033 31.4058 156.814 31.455C156.594 31.5081 156.327 31.5403 156.012 31.5516C155.429 31.5743 154.918 31.4967 154.478 31.3187C154.043 31.1406 153.704 30.8641 153.461 30.4891C153.219 30.1141 153.1 29.6406 153.103 29.0687V20.6141ZM158.743 31.4323V22.705H161.163V31.4323H158.743ZM159.958 21.58C159.599 21.58 159.29 21.4607 159.032 21.2221C158.779 20.9796 158.652 20.6899 158.652 20.3528C158.652 20.0194 158.779 19.7334 159.032 19.4948C159.29 19.2524 159.599 19.1312 159.958 19.1312C160.318 19.1312 160.625 19.2524 160.879 19.4948C161.136 19.7334 161.265 20.0194 161.265 20.3528C161.265 20.6899 161.136 20.9796 160.879 21.2221C160.625 21.4607 160.318 21.58 159.958 21.58ZM165.522 26.3868V31.4323H163.102V22.705H165.409V24.2448H165.511C165.704 23.7372 166.028 23.3357 166.483 23.0403C166.937 22.741 167.488 22.5914 168.136 22.5914C168.742 22.5914 169.27 22.724 169.721 22.9891C170.172 23.2543 170.522 23.6331 170.772 24.1255C171.022 24.6141 171.147 25.1975 171.147 25.8755V31.4323H168.727V26.3073C168.731 25.7732 168.594 25.3565 168.318 25.0573C168.041 24.7543 167.661 24.6028 167.176 24.6028C166.85 24.6028 166.562 24.6728 166.312 24.813C166.066 24.9531 165.873 25.1577 165.733 25.4266C165.596 25.6918 165.526 26.0118 165.522 26.3868ZM178.652 27.7164V22.705H181.072V31.4323H178.748V29.8471H178.657C178.46 30.3584 178.133 30.7694 177.674 31.08C177.22 31.3906 176.665 31.5459 176.01 31.5459C175.426 31.5459 174.913 31.4134 174.47 31.1482C174.027 30.8831 173.68 30.5062 173.43 30.0175C173.184 29.5289 173.059 28.9437 173.055 28.2618V22.705H175.475V27.83C175.479 28.3452 175.618 28.7524 175.89 29.0516C176.163 29.3509 176.529 29.5005 176.987 29.5005C177.279 29.5005 177.551 29.4342 177.805 29.3016C178.059 29.1653 178.263 28.9645 178.419 28.6993C178.578 28.4342 178.655 28.1065 178.652 27.7164ZM186.985 31.6028C186.088 31.6028 185.315 31.4209 184.667 31.0573C184.023 30.6899 183.527 30.1709 183.179 29.5005C182.83 28.8262 182.656 28.0289 182.656 27.1084C182.656 26.2107 182.83 25.4228 183.179 24.7448C183.527 24.0668 184.018 23.5384 184.65 23.1596C185.287 22.7808 186.033 22.5914 186.889 22.5914C187.465 22.5914 188.001 22.6842 188.497 22.8698C188.997 23.0516 189.432 23.3262 189.804 23.6937C190.179 24.0611 190.47 24.5232 190.679 25.08C190.887 25.6331 190.991 26.2808 190.991 27.0232V27.688H183.622V26.188H188.713C188.713 25.8395 188.637 25.5308 188.485 25.2618C188.334 24.9929 188.124 24.7827 187.855 24.6312C187.59 24.4759 187.281 24.3982 186.929 24.3982C186.561 24.3982 186.235 24.4834 185.951 24.6539C185.671 24.8206 185.451 25.0459 185.292 25.33C185.133 25.6103 185.052 25.9228 185.048 26.2675V27.6937C185.048 28.1255 185.127 28.4986 185.287 28.813C185.449 29.1274 185.679 29.3698 185.974 29.5403C186.27 29.7107 186.62 29.7959 187.025 29.7959C187.294 29.7959 187.54 29.7581 187.764 29.6823C187.987 29.6065 188.179 29.4929 188.338 29.3414C188.497 29.1899 188.618 29.0043 188.701 28.7846L190.94 28.9323C190.826 29.4702 190.593 29.9399 190.241 30.3414C189.893 30.7391 189.442 31.0497 188.889 31.2732C188.34 31.4929 187.705 31.6028 186.985 31.6028ZM197.995 31.4323L195.62 22.705H198.069L199.422 28.5687H199.501L200.91 22.705H203.314L204.745 28.5346H204.819L206.149 22.705H208.592L206.223 31.4323H203.66L202.16 25.9437H202.052L200.552 31.4323H197.995ZM209.883 31.4323V22.705H212.304V31.4323H209.883ZM211.099 21.58C210.739 21.58 210.431 21.4607 210.173 21.2221C209.919 20.9796 209.792 20.6899 209.792 20.3528C209.792 20.0194 209.919 19.7334 210.173 19.4948C210.431 19.2524 210.739 19.1312 211.099 19.1312C211.459 19.1312 211.766 19.2524 212.02 19.4948C212.277 19.7334 212.406 20.0194 212.406 20.3528C212.406 20.6899 212.277 20.9796 212.02 21.2221C211.766 21.4607 211.459 21.58 211.099 21.58ZM218.885 22.705V24.5232H213.629V22.705H218.885ZM214.822 20.6141H217.243V28.7505C217.243 28.974 217.277 29.1482 217.345 29.2732C217.413 29.3944 217.508 29.4796 217.629 29.5289C217.754 29.5781 217.898 29.6028 218.061 29.6028C218.174 29.6028 218.288 29.5933 218.402 29.5743C218.515 29.5516 218.602 29.5346 218.663 29.5232L219.044 31.3243C218.922 31.3622 218.752 31.4058 218.532 31.455C218.313 31.5081 218.046 31.5403 217.731 31.5516C217.148 31.5743 216.636 31.4967 216.197 31.3187C215.761 31.1406 215.422 30.8641 215.18 30.4891C214.938 30.1141 214.818 29.6406 214.822 29.0687V20.6141ZM223.069 26.3868V31.4323H220.649V19.7959H223.001V24.2448H223.103C223.3 23.7296 223.618 23.3262 224.058 23.0346C224.497 22.7391 225.048 22.5914 225.711 22.5914C226.317 22.5914 226.846 22.724 227.297 22.9891C227.751 23.2505 228.103 23.6274 228.353 24.1198C228.607 24.6084 228.732 25.1937 228.728 25.8755V31.4323H226.308V26.3073C226.312 25.7694 226.175 25.3509 225.899 25.0516C225.626 24.7524 225.243 24.6028 224.751 24.6028C224.422 24.6028 224.13 24.6728 223.876 24.813C223.626 24.9531 223.429 25.1577 223.285 25.4266C223.145 25.6918 223.073 26.0118 223.069 26.3868ZM236.842 19.7959V31.4323H234.382V19.7959H236.842ZM242.991 31.4323H238.866V19.7959H243.025C244.196 19.7959 245.203 20.0289 246.048 20.4948C246.893 20.9569 247.542 21.6217 247.997 22.4891C248.455 23.3565 248.684 24.3944 248.684 25.6028C248.684 26.8149 248.455 27.8565 247.997 28.7278C247.542 29.599 246.889 30.2675 246.037 30.7334C245.188 31.1993 244.173 31.4323 242.991 31.4323ZM241.326 29.3243H242.889C243.616 29.3243 244.228 29.1956 244.724 28.938C245.224 28.6766 245.599 28.2732 245.849 27.7278C246.103 27.1785 246.23 26.4702 246.23 25.6028C246.23 24.7429 246.103 24.0403 245.849 23.4948C245.599 22.9493 245.226 22.5478 244.73 22.2903C244.234 22.0327 243.622 21.9039 242.895 21.9039H241.326V29.3243ZM251.142 31.58C250.767 31.58 250.445 31.4475 250.176 31.1823C249.911 30.9134 249.778 30.5914 249.778 30.2164C249.778 29.8452 249.911 29.527 250.176 29.2618C250.445 28.9967 250.767 28.8641 251.142 28.8641C251.505 28.8641 251.824 28.9967 252.096 29.2618C252.369 29.527 252.505 29.8452 252.505 30.2164C252.505 30.4664 252.441 30.6956 252.312 30.9039C252.187 31.1084 252.022 31.2732 251.818 31.3982C251.613 31.5194 251.388 31.58 251.142 31.58ZM254.493 31.4323V22.705H256.799V24.2448H256.902C257.083 23.7334 257.386 23.33 257.811 23.0346C258.235 22.7391 258.743 22.5914 259.333 22.5914C259.932 22.5914 260.441 22.741 260.862 23.0403C261.282 23.3357 261.563 23.7372 261.703 24.2448H261.794C261.972 23.7448 262.294 23.3452 262.76 23.0459C263.229 22.7429 263.784 22.5914 264.424 22.5914C265.239 22.5914 265.9 22.8509 266.407 23.3698C266.919 23.885 267.174 24.616 267.174 25.563V31.4323H264.76V26.0403C264.76 25.5554 264.631 25.1918 264.373 24.9493C264.116 24.7069 263.794 24.5857 263.407 24.5857C262.968 24.5857 262.625 24.7259 262.379 25.0062C262.133 25.2827 262.01 25.6482 262.01 26.1028V31.4323H259.663V25.9891C259.663 25.5611 259.54 25.2202 259.294 24.9664C259.051 24.7126 258.731 24.5857 258.333 24.5857C258.065 24.5857 257.822 24.6539 257.606 24.7903C257.394 24.9228 257.225 25.1103 257.1 25.3528C256.975 25.5914 256.913 25.8717 256.913 26.1937V31.4323H254.493ZM273.064 31.6028C272.166 31.6028 271.393 31.4209 270.745 31.0573C270.101 30.6899 269.605 30.1709 269.257 29.5005C268.908 28.8262 268.734 28.0289 268.734 27.1084C268.734 26.2107 268.908 25.4228 269.257 24.7448C269.605 24.0668 270.096 23.5384 270.728 23.1596C271.365 22.7808 272.111 22.5914 272.967 22.5914C273.543 22.5914 274.079 22.6842 274.575 22.8698C275.075 23.0516 275.511 23.3262 275.882 23.6937C276.257 24.0611 276.548 24.5232 276.757 25.08C276.965 25.6331 277.069 26.2808 277.069 27.0232V27.688H269.7V26.188H274.791C274.791 25.8395 274.715 25.5308 274.564 25.2618C274.412 24.9929 274.202 24.7827 273.933 24.6312C273.668 24.4759 273.359 24.3982 273.007 24.3982C272.639 24.3982 272.314 24.4834 272.029 24.6539C271.749 24.8206 271.529 25.0459 271.37 25.33C271.211 25.6103 271.13 25.9228 271.126 26.2675V27.6937C271.126 28.1255 271.206 28.4986 271.365 28.813C271.528 29.1274 271.757 29.3698 272.052 29.5403C272.348 29.7107 272.698 29.7959 273.103 29.7959C273.372 29.7959 273.618 29.7581 273.842 29.6823C274.065 29.6065 274.257 29.4929 274.416 29.3414C274.575 29.1899 274.696 29.0043 274.779 28.7846L277.018 28.9323C276.904 29.4702 276.672 29.9399 276.319 30.3414C275.971 30.7391 275.52 31.0497 274.967 31.2732C274.418 31.4929 273.783 31.6028 273.064 31.6028Z" fill="#272727"/>
</svg>
